# xmcd
#
# Track frame offsets:
#	150
#	14521
#	36131
#	38831
#	53293
#	58505
#	84088
#	86130
#	94744
#	103416
#	120963
#	129128
#	146122
#	166527
#	171142
#	195892
#	216892
#	224322
#	236882
#
# Disc length: 3667 seconds
#
# Revision: 3
# Processed by: cddbd v1.5.2PL0 Copyright (c) Steve Scherf et al.
# Submitted via: VUPlayer 2.49
#
DISCID=f30e5113
DTITLE=Bjørn Lynne - Witchwood
DYEAR=1996
DGENRE=Easy Listening
TTITLE0=Witchwood (Prologue)
TTITLE1=The Woodlands
TTITLE2=The Forest Speaks 1
TTITLE3=Sunlight at the Mooring (A Jetty on the Lake)
TTITLE4=The Forest Speaks 2
TTITLE5=Homeland Farmland
TTITLE6=The Forest Speaks 3
TTITLE7=Tell Tale Signs
TTITLE8=The Forest Speaks 4
TTITLE9=The Town of Witchwoode
TTITLE10=After the Rain (Dew)
TTITLE11=A Presence in the Air
TTITLE12=The Sinister Maze (A Journey Through the Catacombs)
TTITLE13=The Forest Speaks 5
TTITLE14=The Faery Woods
TTITLE15=Sea of Memories 1 (Recollection)
TTITLE16=Sea of Memories 2 (Nostalgia)
TTITLE17=The Gathering
TTITLE18=Witchwood
EXTD=
EXTT0=
EXTT1=
EXTT2=
EXTT3=
EXTT4=
EXTT5=
EXTT6=
EXTT7=
EXTT8=
EXTT9=
EXTT10=
EXTT11=
EXTT12=
EXTT13=
EXTT14=
EXTT15=
EXTT16=
EXTT17=
EXTT18=
PLAYORDER=
